<svg width="24" height="25" viewBox="0 0 24 25" fill="none" xmlns="http://www.w3.org/2000/svg">
<path fill-rule="evenodd" clip-rule="evenodd" d="M16 3.73242H8C5.23858 3.73242 3 5.971 3 8.73242V16.7324C3 19.4938 5.23858 21.7324 8 21.7324H16C18.7614 21.7324 21 19.4938 21 16.7324V8.73242C21 5.971 18.7614 3.73242 16 3.73242ZM19.25 16.7324C19.2445 18.525 17.7926 19.9769 16 19.9824H8C6.20735 19.9769 4.75549 18.525 4.75 16.7324V8.73242C4.75549 6.93977 6.20735 5.48791 8 5.48242H16C17.7926 5.48791 19.2445 6.93977 19.25 8.73242V16.7324ZM16.75 8.98242C17.3023 8.98242 17.75 8.5347 17.75 7.98242C17.75 7.43014 17.3023 6.98242 16.75 6.98242C16.1977 6.98242 15.75 7.43014 15.75 7.98242C15.75 8.5347 16.1977 8.98242 16.75 8.98242ZM12 8.23242C9.51472 8.23242 7.5 10.2471 7.5 12.7324C7.5 15.2177 9.51472 17.2324 12 17.2324C14.4853 17.2324 16.5 15.2177 16.5 12.7324C16.5027 11.5381 16.0294 10.392 15.1849 9.5475C14.3404 8.70301 13.1943 8.22976 12 8.23242ZM9.25 12.7324C9.25 14.2512 10.4812 15.4824 12 15.4824C13.5188 15.4824 14.75 14.2512 14.75 12.7324C14.75 11.2136 13.5188 9.98242 12 9.98242C10.4812 9.98242 9.25 11.2136 9.25 12.7324Z" fill="#B0B0B0"/>
</svg>
