<svg width="24" height="25" viewBox="0 0 24 25" fill="none" xmlns="http://www.w3.org/2000/svg">
<path fill-rule="evenodd" clip-rule="evenodd" d="M4.5 3.73242C3.67157 3.73242 3 4.40399 3 5.23242V20.2324C3 21.0608 3.67157 21.7324 4.5 21.7324H19.5C20.3284 21.7324 21 21.0608 21 20.2324V5.23242C21 4.40399 20.3284 3.73242 19.5 3.73242H4.5ZM8.52076 7.73514C8.52639 8.69139 7.81061 9.28061 6.96123 9.27639C6.16107 9.27217 5.46357 8.63514 5.46779 7.73655C5.47201 6.89139 6.13998 6.21217 7.00764 6.23186C7.88795 6.25155 8.52639 6.89702 8.52076 7.73514ZM12.2797 10.4942H9.75971H9.7583V19.054H12.4217V18.8543C12.4217 18.4744 12.4214 18.0944 12.4211 17.7143C12.4203 16.7005 12.4194 15.6856 12.4246 14.6721C12.426 14.426 12.4372 14.1701 12.5005 13.9352C12.7381 13.0577 13.5271 12.491 14.4074 12.6303C14.9727 12.7188 15.3467 13.0465 15.5042 13.5795C15.6013 13.9127 15.6449 14.2713 15.6491 14.6187C15.6605 15.6663 15.6589 16.7139 15.6573 17.7616C15.6567 18.1314 15.6561 18.5014 15.6561 18.8712V19.0526H18.328V18.8473C18.328 18.3953 18.3278 17.9434 18.3275 17.4915C18.327 16.362 18.3264 15.2325 18.3294 14.1026C18.3308 13.5921 18.276 13.0887 18.1508 12.5951C17.9638 11.861 17.5771 11.2535 16.9485 10.8148C16.5027 10.5026 16.0133 10.3015 15.4663 10.279C15.404 10.2764 15.3412 10.273 15.2781 10.2696C14.9984 10.2545 14.7141 10.2392 14.4467 10.2931C13.6817 10.4464 13.0096 10.7965 12.5019 11.4138C12.4429 11.4846 12.3852 11.5565 12.2991 11.6638L12.2797 11.6881V10.4942ZM5.68164 19.0568H8.33242V10.4998H5.68164V19.0568Z" fill="#B0B0B0"/>
</svg>
